<svg width="21" height="21" viewBox="0 0 21 21" fill="none" xmlns="http://www.w3.org/2000/svg">
<path fill-rule="evenodd" clip-rule="evenodd" d="M14.577 20.3684H5.753C2.312 20.3684 0 17.9534 0 14.3594V6.04538C0 2.45138 2.312 0.036377 5.753 0.036377H9.492C9.906 0.036377 10.242 0.372377 10.242 0.786377C10.242 1.20038 9.906 1.53638 9.492 1.53638H5.753C3.169 1.53638 1.5 3.30638 1.5 6.04538V14.3594C1.5 17.0984 3.169 18.8684 5.753 18.8684H14.577C17.161 18.8684 18.831 17.0984 18.831 14.3594V10.3314C18.831 9.91738 19.167 9.58138 19.581 9.58138C19.995 9.58138 20.331 9.91738 20.331 10.3314V14.3594C20.331 17.9534 18.018 20.3684 14.577 20.3684Z" fill="#475467"/>
<path fill-rule="evenodd" clip-rule="evenodd" d="M6.86737 13.428H9.84437C10.2244 13.428 10.5804 13.281 10.8494 13.012L18.3584 5.503C18.6664 5.195 18.8364 4.785 18.8364 4.349C18.8364 3.912 18.6664 3.501 18.3584 3.193L17.1414 1.976C16.5044 1.341 15.4684 1.341 14.8304 1.976L7.35737 9.449C7.09837 9.708 6.95137 10.052 6.94237 10.417L6.86737 13.428ZM9.84437 14.928H6.09837C5.89637 14.928 5.70237 14.846 5.56137 14.701C5.42037 14.557 5.34337 14.362 5.34837 14.159L5.44237 10.38C5.46137 9.628 5.76437 8.921 6.29637 8.388H6.29737L13.7704 0.915C14.9924 -0.305 16.9794 -0.305 18.2014 0.915L19.4184 2.132C20.0114 2.724 20.3374 3.511 20.3364 4.349C20.3364 5.187 20.0104 5.973 19.4184 6.564L11.9094 14.073C11.3584 14.624 10.6244 14.928 9.84437 14.928Z" fill="#475467"/>
<path fill-rule="evenodd" clip-rule="evenodd" d="M17.7308 7.9163C17.5388 7.9163 17.3468 7.8433 17.2008 7.6963L12.6348 3.1303C12.3418 2.8373 12.3418 2.3623 12.6348 2.0693C12.9278 1.7763 13.4018 1.7763 13.6948 2.0693L18.2608 6.6363C18.5538 6.9293 18.5538 7.4033 18.2608 7.6963C18.1148 7.8433 17.9228 7.9163 17.7308 7.9163Z" fill="#475467"/>
</svg>
