<svg width="24" height="29" viewBox="0 0 24 29" fill="none" xmlns="http://www.w3.org/2000/svg">
<path fill-rule="evenodd" clip-rule="evenodd" d="M11.5048 15.486H11.5515C15.8215 15.486 19.2938 12.0138 19.2938 7.74375C19.2938 3.47375 15.8215 0 11.5515 0C7.28002 0 3.80627 3.47375 3.80627 7.73938C3.79169 11.9977 7.24357 15.4729 11.5048 15.486ZM5.88877 7.74375C5.88877 4.62146 8.42919 2.0825 11.5515 2.0825C14.6723 2.0825 17.2113 4.62146 17.2113 7.74375C17.2113 10.8646 14.6723 13.405 11.5515 13.405H11.5092C8.40002 13.3933 5.87857 10.8558 5.88877 7.74375Z" fill="#667085"/>
<path fill-rule="evenodd" clip-rule="evenodd" d="M0 23.5861C0 28.9776 8.69458 28.9776 11.5515 28.9776C16.5083 28.9776 23.1 28.422 23.1 23.6153C23.1 18.2238 14.4083 18.2238 11.5515 18.2238C6.59313 18.2238 0 18.7795 0 23.5861ZM2.1875 23.5861C2.1875 21.4788 5.3375 20.4113 11.5515 20.4113C17.764 20.4113 20.9125 21.489 20.9125 23.6153C20.9125 25.7226 17.764 26.7901 11.5515 26.7901C5.3375 26.7901 2.1875 25.7124 2.1875 23.5861Z" fill="#667085"/>
</svg>
