<svg width="58" height="62" viewBox="0 0 58 62" fill="none" xmlns="http://www.w3.org/2000/svg">
<ellipse cx="29" cy="31" rx="29" ry="31" fill="#175CD3"/>
<path fill-rule="evenodd" clip-rule="evenodd" d="M39.6027 27.9782C39.456 28.1152 39.2569 28.1935 39.0474 28.1935C38.2721 28.1935 37.6435 28.7807 37.6435 29.4951C37.6435 30.2144 38.2647 30.7987 39.0327 30.8065C39.4654 30.8105 39.8332 31.0923 39.8332 31.4965V34.0068C39.8332 36.1197 37.9997 37.8334 35.7366 37.8334H32.3211C31.968 37.8334 31.682 37.5662 31.682 37.2364V35.1225C31.682 34.7114 31.3362 34.3885 30.8962 34.3885C30.4666 34.3885 30.1104 34.7114 30.1104 35.1225V37.2364C30.1104 37.5662 29.8244 37.8334 29.4724 37.8334H22.2631C20.0105 37.8334 18.1665 36.1207 18.1665 34.0068V31.4965C18.1665 31.0923 18.5343 30.8105 18.967 30.8065C19.736 30.7987 20.3562 30.2144 20.3562 29.4951C20.3562 28.8003 19.7485 28.2718 18.9523 28.2718C18.7427 28.2718 18.5437 28.1935 18.397 28.0565C18.2503 27.9195 18.1665 27.7335 18.1665 27.5378V25.0031C18.1665 22.8931 20.0147 21.1667 22.2735 21.1667H29.4724C29.8244 21.1667 30.1104 21.4339 30.1104 21.7637V24.2691C30.1104 24.6703 30.4666 25.0031 30.8962 25.0031C31.3362 25.0031 31.682 24.6703 31.682 24.2691V21.7637C31.682 21.4339 31.968 21.1667 32.3211 21.1667H35.7366C37.9997 21.1667 39.8332 22.8794 39.8332 24.9933V27.4595C39.8332 27.6552 39.7494 27.8412 39.6027 27.9782ZM30.8962 32.4898C31.3362 32.4898 31.682 32.1571 31.682 31.7558V27.8412C31.682 27.4399 31.3362 27.1072 30.8962 27.1072C30.4666 27.1072 30.1104 27.4399 30.1104 27.8412V31.7558C30.1104 32.1571 30.4666 32.4898 30.8962 32.4898Z" fill="white"/>
</svg>
