<svg width="35" height="35" viewBox="0 0 35 35" fill="none" xmlns="http://www.w3.org/2000/svg">
<mask id="mask0_199_2424" style="mask-type:luminance" maskUnits="userSpaceOnUse" x="2" y="1" width="31" height="32">
<path fill-rule="evenodd" clip-rule="evenodd" d="M2.9165 1.45862H32.812V32.8201H2.9165V1.45862Z" fill="white"/>
</mask>
<g mask="url(#mask0_199_2424)">
<path fill-rule="evenodd" clip-rule="evenodd" d="M20.0038 22.2998C21.7596 22.2998 23.1888 23.7187 23.1888 25.4629V29.9487C23.1888 30.3235 23.4892 30.6239 23.8742 30.6327H26.6538C28.8442 30.6327 30.6248 28.8739 30.6248 26.7127V13.9902C30.6146 13.2464 30.2603 12.5464 29.6521 12.0812L20.0373 4.41332C18.7467 3.39103 16.9413 3.39103 15.6463 4.41624L6.09713 12.0783C5.46567 12.5581 5.1113 13.2581 5.104 14.015V26.7127C5.104 28.8739 6.88463 30.6327 9.07505 30.6327H11.8809C12.2761 30.6327 12.5969 30.3192 12.5969 29.9342C12.5969 29.8496 12.6071 29.765 12.6246 29.6848V25.4629C12.6246 23.7289 14.045 22.3114 15.7878 22.2998H20.0038ZM26.6538 32.8202H23.848C22.2409 32.7823 21.0013 31.5208 21.0013 29.9487V25.4629C21.0013 24.9248 20.5536 24.4873 20.0038 24.4873H15.795C15.2569 24.4902 14.8121 24.9292 14.8121 25.4629V29.9342C14.8121 30.0435 14.7975 30.1485 14.7669 30.2477C14.6094 31.6914 13.3757 32.8202 11.8809 32.8202H9.07505C5.67859 32.8202 2.9165 30.08 2.9165 26.7127V14.0048C2.93109 12.5552 3.599 11.2281 4.75255 10.3546L14.2828 2.70561C16.3813 1.04311 19.3053 1.04311 21.3994 2.7027L30.9982 10.3589C32.1255 11.2179 32.7934 12.5421 32.8123 13.9742V26.7127C32.8123 30.08 30.0503 32.8202 26.6538 32.8202V32.8202Z" fill="#667085"/>
</g>
</svg>
