<svg width="35" height="35" viewBox="0 0 35 35" fill="none" xmlns="http://www.w3.org/2000/svg">
<path d="M19.3267 2.91669C19.7019 2.91685 19.9907 3.2231 19.9907 3.58759V8.2829C19.9907 10.9516 22.1707 13.1393 24.813 13.154C25.9103 13.154 26.7767 13.1686 27.4409 13.1686C27.8885 13.1686 28.6248 13.154 29.2456 13.154C29.6065 13.154 29.8959 13.4457 29.896 13.8102V25.5358C29.8958 29.1523 26.9933 32.0837 23.4126 32.0837H11.9194C8.16531 32.0837 5.104 29.0062 5.104 25.2145V9.49384C5.104 5.87725 8.02054 2.91682 11.6157 2.91669H19.3267ZM13.0161 21.7292C12.4243 21.7294 11.9341 22.2105 11.9341 22.8083C11.9341 23.4061 12.4243 23.9018 13.0161 23.902H20.8716C21.4635 23.9019 21.9546 23.4061 21.9546 22.8083C21.9546 22.2105 21.4634 21.7293 20.8716 21.7292H13.0161ZM13.0161 14.4372C12.4244 14.4374 11.9343 14.9333 11.9341 15.5309C11.9341 16.1287 12.4243 16.6098 13.0161 16.61H17.897C18.4889 16.61 18.98 16.1288 18.98 15.5309C18.9798 14.9332 18.4888 14.4372 17.897 14.4372H13.0161ZM22.0942 4.23798C22.0942 3.60943 22.85 3.29713 23.2817 3.75067C24.8426 5.38982 27.5695 8.25587 29.0942 9.85712C29.5159 10.299 29.207 11.0324 28.5991 11.0339C27.4124 11.0382 26.0136 11.0333 25.0073 11.0231C23.4104 11.0231 22.0942 9.69464 22.0942 8.08173V4.23798Z" fill="#667085"/>
</svg>
