<svg width="35" height="35" viewBox="0 0 35 35" fill="none" xmlns="http://www.w3.org/2000/svg">
<mask id="mask0_199_2425" style="mask-type:luminance" maskUnits="userSpaceOnUse" x="2" y="2" width="31" height="31">
<path fill-rule="evenodd" clip-rule="evenodd" d="M2.91699 2.91693H32.0877V32.0851H2.91699V2.91693Z" fill="white"/>
</mask>
<g mask="url(#mask0_199_2425)">
<path fill-rule="evenodd" clip-rule="evenodd" d="M15.9614 29.2767C16.8218 30.1167 18.2072 30.1065 19.0618 29.2476L20.1147 28.1976C20.9314 27.3824 22.0601 26.9172 23.2108 26.9172H24.7128C25.9291 26.9172 26.9178 25.9284 26.9178 24.7136V23.213C26.9178 22.0449 27.3699 20.9467 28.1953 20.1199L29.2453 19.0684C29.6726 18.6397 29.9016 18.084 29.9001 17.4949C29.8987 16.9072 29.6668 16.3545 29.2483 15.9374L28.1968 14.8845C27.3699 14.0517 26.9178 12.9551 26.9178 11.787V10.2892C26.9178 9.073 25.9291 8.08425 24.7128 8.08425H23.2137C22.0455 8.08425 20.9474 7.63071 20.1205 6.80966L19.0676 5.75529C18.1912 4.88758 16.7926 4.89196 15.9366 5.75383L14.888 6.80529C14.051 7.63216 12.9528 8.08425 11.7891 8.08425H10.2885C9.07367 8.08571 8.08492 9.07446 8.08492 10.2892V11.784C8.08492 12.9522 7.63138 14.0503 6.80888 14.8786L5.77346 15.9155C5.76325 15.9272 5.75305 15.9359 5.74284 15.9461C4.8868 16.808 4.89117 18.2065 5.75305 19.0626L6.80596 20.1155C7.63138 20.9438 8.08492 22.042 8.08492 23.2101V24.7136C8.08492 25.9284 9.07221 26.9172 10.2885 26.9172H11.7862C12.9558 26.9186 14.0539 27.3722 14.8808 28.1961L15.9322 29.2447C15.941 29.2549 15.9512 29.2651 15.9614 29.2767V29.2767ZM17.4985 32.0855C16.3799 32.0855 15.2614 31.6626 14.4053 30.8138C14.3937 30.8022 14.382 30.7905 14.3703 30.7774L13.3349 29.7434C12.9222 29.3336 12.371 29.1061 11.7847 29.1047H10.2885C7.86617 29.1047 5.89742 27.1345 5.89742 24.7136V23.2101C5.89742 22.6238 5.66846 22.074 5.25721 21.6599L4.20867 20.6128C2.50534 18.9182 2.48492 16.159 4.15763 14.4382C4.17075 14.4251 4.18388 14.412 4.197 14.3988L5.25867 13.3342C5.66846 12.9215 5.89742 12.3688 5.89742 11.784V10.2892C5.89742 7.86841 7.86617 5.89821 10.287 5.89675H11.7891C12.3739 5.89675 12.9251 5.66779 13.3437 5.25508L14.3864 4.20946C16.0912 2.493 18.878 2.48425 20.5974 4.19341L21.6635 5.25946C22.0762 5.66925 22.6274 5.89675 23.2137 5.89675H24.7128C27.1351 5.89675 29.1053 7.86696 29.1053 10.2892V11.787C29.1053 12.3717 29.3328 12.9245 29.7455 13.3401L30.7926 14.3886C31.6224 15.2126 32.0833 16.3136 32.0876 17.4876C32.092 18.6615 31.6385 19.7655 30.8116 20.5982L29.7426 21.6642C29.3328 22.077 29.1053 22.6267 29.1053 23.213V24.7136C29.1053 27.1345 27.1351 29.1047 24.7143 29.1047H23.2108C22.6333 29.1047 22.0689 29.338 21.6591 29.7449L20.612 30.792C19.756 31.6538 18.6272 32.0855 17.4985 32.0855V32.0855Z" fill="#667085"/>
</g>
<path fill-rule="evenodd" clip-rule="evenodd" d="M13.7526 22.3439C13.4726 22.3439 13.1926 22.2374 12.9796 22.023C12.5524 21.5957 12.5524 20.9045 12.9796 20.4772L20.4755 12.9799C20.9028 12.5526 21.5955 12.5526 22.0228 12.9799C22.4501 13.4072 22.4501 14.0999 22.0228 14.5272L14.5255 22.023C14.3126 22.2374 14.0326 22.3439 13.7526 22.3439" fill="#667085"/>
<path fill-rule="evenodd" clip-rule="evenodd" d="M21.1507 22.603C20.3442 22.603 19.6851 21.9511 19.6851 21.1447C19.6851 20.3382 20.3311 19.6863 21.1376 19.6863H21.1507C21.9571 19.6863 22.609 20.3382 22.609 21.1447C22.609 21.9511 21.9571 22.603 21.1507 22.603" fill="#101828"/>
<path fill-rule="evenodd" clip-rule="evenodd" d="M13.8592 15.3113C13.0527 15.3113 12.3936 14.6594 12.3936 13.853C12.3936 13.0465 13.0396 12.3947 13.8461 12.3947H13.8592C14.6656 12.3947 15.3175 13.0465 15.3175 13.853C15.3175 14.6594 14.6656 15.3113 13.8592 15.3113" fill="#101828"/>
</svg>
