<svg width="20" height="20" viewBox="0 0 20 20" fill="none" xmlns="http://www.w3.org/2000/svg">
<path fill-rule="evenodd" clip-rule="evenodd" d="M16.9992 7.62172L17.5994 8.22172C18.0745 8.68839 18.333 9.32172 18.333 9.98838C18.3413 10.6551 18.0829 11.2892 17.616 11.7634C17.6105 11.7695 17.6049 11.7749 17.5994 11.7802C17.5966 11.7829 17.5938 11.7856 17.591 11.7884L16.9992 12.3801C16.7657 12.6134 16.6324 12.9301 16.6324 13.2642V14.1217C16.6324 15.5051 15.507 16.6309 14.1231 16.6309H13.2645C12.931 16.6309 12.6142 16.7634 12.3808 16.9967L11.7806 17.5967C11.2888 18.0892 10.6469 18.3301 10.005 18.3301C9.36306 18.3301 8.72116 18.0892 8.22931 17.6059L7.62076 16.9967C7.38734 16.7634 7.07056 16.6309 6.7371 16.6309H5.87846C4.49463 16.6309 3.36922 15.5051 3.36922 14.1217V13.2642C3.36922 12.9301 3.23584 12.6134 3.00242 12.3717L2.4022 11.7801C1.42685 10.8059 1.41851 9.21338 2.39386 8.23088L3.00242 7.62172C3.23584 7.38838 3.36922 7.07172 3.36922 6.73005V5.88005C3.36922 4.49672 4.49463 3.37255 5.87846 3.37255H6.7371C7.07056 3.37255 7.38734 3.23838 7.62076 3.00505L8.22098 2.40505C9.19633 1.42255 10.7886 1.42255 11.7723 2.39755L12.3808 3.00505C12.6142 3.23838 12.931 3.37255 13.2645 3.37255H14.1231C15.507 3.37255 16.6324 4.49672 16.6324 5.88005V6.73922C16.6324 7.07172 16.7657 7.38838 16.9992 7.62172ZM7.85418 12.8717C8.05425 12.8717 8.23765 12.7967 8.37103 12.6551L12.6559 8.37255C12.9394 8.08922 12.9394 7.62172 12.6559 7.33839C12.3725 7.05589 11.914 7.05589 11.6305 7.33839L7.34566 11.6217C7.06222 11.9051 7.06222 12.3717 7.34566 12.6551C7.47904 12.7967 7.66244 12.8717 7.85418 12.8717ZM11.4138 12.1384C11.4138 12.5467 11.7389 12.8717 12.1474 12.8717C12.5475 12.8717 12.8727 12.5467 12.8727 12.1384C12.8727 11.7392 12.5475 11.4134 12.1474 11.4134C11.7389 11.4134 11.4138 11.7392 11.4138 12.1384ZM7.86251 7.13005C8.26266 7.13005 8.58778 7.45505 8.58778 7.85505C8.58778 8.26422 8.26266 8.58838 7.86251 8.58838C7.46237 8.58838 7.12891 8.26422 7.12891 7.85505C7.12891 7.45505 7.46237 7.13005 7.86251 7.13005Z" fill="#17B26A"/>
</svg>
