<svg width="71" height="32" viewBox="0 0 71 32" fill="none" xmlns="http://www.w3.org/2000/svg">
<rect x="0.5" y="0.5" width="70" height="31" rx="3.5" fill="white"/>
<rect x="0.5" y="0.5" width="70" height="31" rx="3.5" stroke="#EAECF0"/>
<path d="M5.05593 18.9951C5.05593 18.2012 5.04229 17.5344 5 16.9395H6.47491L6.5449 17.9614H6.58609C6.91962 17.4219 7.53171 16.7829 8.67282 16.7829C9.56361 16.7829 10.2586 17.2946 10.5504 18.0591H10.5789C10.8153 17.6765 11.0928 17.393 11.4127 17.1952C11.7884 16.9258 12.2207 16.7829 12.7762 16.7829C13.9032 16.7829 15.0432 17.5626 15.0432 19.7761V23.8441H13.3742V20.0302C13.3742 18.8828 12.9849 18.2012 12.1639 18.2012C11.5799 18.2012 11.1482 18.6269 10.9677 19.1234C10.926 19.2921 10.8842 19.5061 10.8842 19.7035V23.8443H9.21479V19.8449C9.21479 18.8828 8.83966 18.2012 8.04599 18.2012C7.40731 18.2012 6.97611 18.7119 6.82167 19.1935C6.75265 19.3634 6.72455 19.5625 6.72455 19.7602V23.8443H5.05593V18.9951Z" fill="#003D79"/>
<path d="M21.5463 22.1858C21.5463 22.809 21.5739 23.4181 21.6429 23.8444H20.0987L19.9878 23.0793H19.9456C19.5279 23.6186 18.8186 24 17.9438 24C16.5799 24 15.8149 22.9945 15.8149 21.9446C15.8149 20.1997 17.3298 19.322 19.8353 19.3359V19.2226C19.8353 18.7687 19.6537 18.0171 18.4572 18.0171C17.7891 18.0171 17.094 18.2303 16.6351 18.5274L16.3015 17.3933C16.8023 17.0808 17.6786 16.7832 18.7492 16.7832C20.9201 16.7832 21.5465 18.188 21.5465 19.6897L21.5463 22.1858ZM19.8765 20.471C18.6658 20.4422 17.5119 20.7112 17.5119 21.7604C17.5119 22.4408 17.9439 22.7533 18.4857 22.7533C19.1662 22.7533 19.6679 22.2982 19.8207 21.8024C19.8619 21.6743 19.8763 21.5336 19.8763 21.42L19.8765 20.471Z" fill="#003D79"/>
<path d="M22.7283 18.9951C22.7283 18.2012 22.7138 17.5344 22.6738 16.9395H24.1748L24.258 17.9759H24.3004C24.5922 17.4363 25.3298 16.783 26.4563 16.783C27.6392 16.783 28.8625 17.5628 28.8625 19.7473V23.8443H27.152V19.9463C27.152 18.9531 26.7896 18.2011 25.8581 18.2011C25.1773 18.2011 24.7031 18.6974 24.5231 19.2224C24.4677 19.3782 24.4535 19.5909 24.4535 19.7886V23.8443H22.7285L22.7283 18.9951Z" fill="#003D79"/>
<path d="M36.2797 14.166V21.9017C36.2797 22.6103 36.3085 23.3768 36.3355 23.8443H34.8063L34.7366 22.7531H34.7083C34.3049 23.5184 33.4839 23.9997 32.497 23.9997C30.8828 23.9997 29.6042 22.5964 29.6042 20.4708C29.5893 18.1591 31.0079 16.7829 32.6357 16.7829C33.5673 16.7829 34.2353 17.18 34.5411 17.6923H34.5695V14.166H36.2797ZM34.5697 19.8174C34.5697 19.6764 34.5558 19.5061 34.5272 19.3635C34.3745 18.6845 33.8328 18.131 33.0533 18.131C31.9543 18.131 31.3415 19.1236 31.3415 20.4137C31.3415 21.6745 31.9543 22.5967 33.0399 22.5967C33.734 22.5967 34.3468 22.1144 34.5133 21.3627C34.5558 21.2073 34.5695 21.0364 34.5695 20.8525L34.5697 19.8174Z" fill="#003D79"/>
<path d="M37.4901 23.8443V16.9394H39.2158V23.8443H37.4901Z" fill="#003D79"/>
<path d="M40.4248 19.166C40.4248 18.2301 40.4109 17.5628 40.3701 16.9396H41.8587L41.9132 18.2568H41.9699C42.3038 17.28 43.0958 16.9396 43.8209 16.9396C43.9867 16.9396 44.0843 16.9112 44.2226 16.9396V18.4715C44.0843 18.4429 43.9318 18.4148 43.7228 18.4148C42.9011 18.4148 42.3447 18.9533 42.1922 19.732C42.1653 19.8884 42.1368 20.0736 42.1368 20.2723V23.8444H40.4251L40.4248 19.166Z" fill="#003D79"/>
<path d="M45.0163 23.8443V16.9394H46.7401V23.8443H45.0163Z" fill="#003D79"/>
<path d="M57.4763 9.63755C56.6227 8.64497 55.7147 9.09401 54.9936 9.45936C54.6904 9.61199 52.4998 10.8778 52.4998 10.8778C51.2997 11.3822 50.3651 10.8318 49.9981 10.3685C49.9604 10.3197 49.9274 10.2739 49.9028 10.2291L49.8181 10.0783C49.6869 9.85252 49.5296 9.59697 49.3366 9.34521C49.2332 9.20859 49.1181 9.0721 48.9912 8.94306C48.1705 8.09764 46.8578 7.50636 44.664 8.58094C43.6258 9.1944 40.242 11.1648 40.242 11.1648C38.9713 11.6985 37.9981 11.0484 37.6827 10.5719C37.6687 10.5539 37.6549 10.5324 37.6458 10.5144L37.6043 10.4421L37.3897 10.085C37.2978 9.93747 37.1961 9.78568 37.079 9.62997C36.9748 9.49405 36.8586 9.35869 36.7327 9.22838C35.917 8.38843 34.6118 7.79827 32.4376 8.85236C31.1226 9.61733 28.0648 11.3997 28.0648 11.3997C28.0641 11.4007 28.0641 11.4007 28.0638 11.4007C26.8055 12.1338 25.8254 12.704 25.8254 12.704L26.9835 14.1534C27.4706 14.6267 28.3869 15.4029 29.8041 14.7485C29.8041 14.7485 33.7154 12.4399 33.7305 12.4333C37.0745 10.5629 38.7251 12.3501 39.4538 13.5412C39.4793 13.5784 39.5003 13.6188 39.5226 13.6551L39.5245 13.6567C39.5331 13.6712 39.5393 13.6847 39.5467 13.6983L39.6298 13.836C39.9844 14.3852 40.5458 14.7399 41.2137 14.7236C41.5822 14.716 41.8322 14.5933 42.1965 14.3873L45.9807 12.1501C45.9832 12.1488 45.985 12.1476 45.9889 12.1466C49.3743 10.2535 51.0523 12.1577 51.769 13.3488C51.8246 13.4519 51.8884 13.55 51.9527 13.6417C52.3075 14.1322 52.7971 14.4533 53.4186 14.4379C53.8288 14.4293 54.2892 14.1782 54.3573 14.1322L58.8947 11.4635C58.8949 11.4635 58.4307 10.7499 57.4763 9.63755Z" fill="url(#paint0_linear_174_3948)"/>
<defs>
<linearGradient id="paint0_linear_174_3948" x1="28.5973" y1="18.4645" x2="64.1591" y2="2.35095" gradientUnits="userSpaceOnUse">
<stop stop-color="#FDB913"/>
<stop offset="0.2247" stop-color="#FFCB05"/>
<stop offset="0.3933" stop-color="#FAA61A"/>
<stop offset="0.5281" stop-color="#FFCB05"/>
<stop offset="0.6461" stop-color="#FAA61A"/>
<stop offset="0.6683" stop-color="#FCB415"/>
<stop offset="0.6975" stop-color="#FFC10E"/>
<stop offset="0.7285" stop-color="#FFC907"/>
<stop offset="0.764" stop-color="#FFCB05"/>
<stop offset="0.7974" stop-color="#FFCB05"/>
<stop offset="1" stop-color="#FFCB05"/>
</linearGradient>
</defs>
</svg>
